<?xml version="1.0" encoding="UTF-8"?><svg xmlns="http://www.w3.org/2000/svg" viewBox="0 0 361 44"><defs><style>.cls-1{fill:#fff;}.cls-2{fill:#e4002b;}</style></defs><g id="Red_Bar"><rect class="cls-2" width="361" height="44"/></g><g id="Pages_Scholastic"><g id="Pages_Scholastic-2"><path id="FLYING_PAGES" class="cls-1" d="m26.67,32.73l.21-15.84c0-1-1.61-2.43-2.93-3.58-1.32-1.14-3.22-1.61-4.15-1.68-.57-.04-3.61,0-4.76-.29-1.14-.29-.97.07-1.07.75l-2.22,15.59c-.07.86.29.9.54,1,.25.11,2.15.24,4.29.25,2.22,0,2.45-.04,4.61.61,2.15.64,4.29,2.83,4.79,3.26.39.33.68.39.68-.07m16.15-6.08l-2-15.2c-.07-.68-.21-.64-.64-.54-.43.11-.31.11-2.33.47-.96.17-2.28.03-3.83.5-1.5.45-2.66,1.26-3.97,2.43-.49.44-1.57,1.29-1.65,2.58l-.07,14.94c0,.71.36.86.79.29.53-.71,1.23-1.3,2.04-1.68,2.86-1.36,6.8-1.65,7.3-1.68.5-.04,3.08-.25,3.43-.36.87-.26,1.1-.01.93-1.75"/><path id="SCHOLASTIC" class="cls-1" d="m73.8,25.99c0-2.02-.93-3.71-2.59-4.73-1.12-.69-2.5-1.12-4.52-1.45l-3.65-.6c-1.54-.24-3.1-.78-3.1-2.53s1.66-2.8,4.16-2.8,4.46.81,7.17,2.86l.96-5.09c-.57.3-.96.63-1.6.63-.39,0-.84-.06-1.27-.18-1.72-.48-1.24-.33-1.57-.42-1.03-.21-2.29-.33-3.38-.33-5.37,0-8.89,2.44-8.89,6.3,0,1.63.78,3.2,1.96,4.07,1.08.81,2.83,1.54,4.64,1.78l3.77.51c1.99.27,3.44,1.33,3.44,2.8,0,1.9-1.75,2.95-4.61,2.95-1.54,0-3.07-.3-4.52-.94-2.89-1.24-4.76-3.38-4.76-3.38l-.12,6.75s.66-1.02,1.48-1.02c1.02,0,2.68.6,3.62.81,1.96.39,2.71.48,4.19.48,5.67,0,9.19-2.47,9.19-6.48m14.88-4.04c0-4.43,3.26-7.9,7.66-7.9,3.53,0,5.91,1.51,7.99,4.49l1.11-4.55c-2.98-1.93-6.03-2.65-9.19-2.65-7.5,0-12.36,4.97-12.36,10.73,0,6.87,6.33,10.55,12.39,10.4,3.38-.09,6.33-.78,9.38-2.38l-1.18-3.95h-.36c-1.66,2.14-4.94,3.62-7.84,3.62-4.61,0-7.6-3.44-7.6-7.81m50.84,6.63v-13.26c0-1.87.54-2.41,1.75-3.47h-7.87c1.27.84,1.75,1.66,1.75,3.41v4.01c0,.33.03.42.09.72-.27-.12-.39-.12-.69-.12h-12.33c-.3,0-.39,0-.69.12.09-.3.09-.39.09-.72v-3.86c0-1.66.66-2.65,1.87-3.56h-8.11c1.33,1.09,1.9,1.66,1.9,3.47v13.05c0,2.14-.75,2.95-2.05,3.59h8.26c-1.39-.9-1.87-1.96-1.87-3.5v-5.22c0-.33,0-.42-.09-.72.3.09.39.09.69.09h12.33c.3,0,.42,0,.69-.09-.06.3-.09.39-.09.72v5.37c0,2.2-.69,2.2-2.02,3.35h8.14c-1.36-1.12-1.75-1.57-1.75-3.38m32.58-6.66c0,1.9-.75,3.86-2.02,5.34-1.45,1.69-3.35,2.5-5.58,2.5s-4.07-.81-5.58-2.5c-1.27-1.48-1.99-3.44-1.99-5.34s.72-3.89,1.99-5.37c1.51-1.69,3.35-2.5,5.58-2.5s4.1.81,5.58,2.5c1.27,1.45,2.02,3.44,2.02,5.37m4.76,0c0-5.88-4.88-10.58-12.36-10.58-6.84,0-12.36,4.7-12.36,10.58s4.91,10.58,12.36,10.55c6.84-.03,12.36-4.7,12.36-10.55m26.77,10.73l2.26-4.94-.24-.21c-1.15.99-2.14,1.33-4.13,1.33h-7.54c-.33,0-.42,0-.72.12.09-.3.09-.42.09-.75v-13.41c0-1.42.36-2.05,1.6-2.92h-7.36c1.09.82,1.45,1.39,1.45,2.92v13.59c0,2.35-.9,2.74-1.63,3.59h14.11c1.42.03,1.39,0,2.11.69m27.1-8.56c-1.18-.03-1.57-.06-2.62-.06h-4.94c-.9,0-1.36.03-2.41.06.51-.84.78-1.18,1.27-1.99l2.59-4.58c.48-.84.63-1.18,1.11-2.14.51.94.69,1.3,1.18,2.08l2.44,4.49c.51.87.69,1.21,1.39,2.14m2.86,7.87h8.5c-.15-.06-1.87-.78-3.71-3.71l-8.53-13.93c-1.18-1.9-1.09-1.93-1.39-2.47h-5.34c.48.63.54.79.54,1.21,0,.48-.15.87-.63,1.75l-8.17,14.38c-.66,1.24-1.48,2.02-2.8,2.77h6.45c-.75-.42-.9-.66-.9-1.18,0-.24.06-.51.18-.75l1.78-3.56h12.72l1.81,3.01c.33.54.45.84.45,1.14,0,.63-.96,1.33-.96,1.33m35.14-5.97c0-2.02-.93-3.71-2.59-4.73-1.12-.69-2.5-1.12-4.52-1.45l-3.65-.6c-1.54-.24-3.1-.78-3.1-2.53s1.66-2.8,4.16-2.8,4.46.81,7.17,2.86l.97-5.09c-.57.3-.97.63-1.6.63-.39,0-.84-.06-1.27-.18-1.72-.48-1.23-.33-1.57-.42-1.02-.21-2.29-.33-3.38-.33-5.37,0-8.89,2.44-8.89,6.3,0,1.63.78,3.2,1.96,4.07,1.09.81,2.83,1.54,4.64,1.78l3.77.51c1.99.27,3.44,1.33,3.44,2.8,0,1.9-1.75,2.95-4.61,2.95-1.54,0-3.07-.3-4.52-.94-2.89-1.24-4.76-3.38-4.76-3.38l-.12,6.75s.66-1.02,1.48-1.02c1.02,0,2.68.6,3.62.81,1.96.39,2.71.48,4.19.48,5.67,0,9.19-2.47,9.19-6.48m28.25-10.28l2.53-4.22c-1.06.18-1.15.36-4.16.36h-12.45c-1.3,0-2.29-.57-2.29-.57l-2.98,4.73.24.21c.99-.87,2.11-1.36,4.13-1.36h3.92c.3,0,.39-.03.69-.12-.06.3-.09.39-.09.75v12.9c0,1.57-.54,2.71-1.69,3.56h7.72c-1.3-1.06-1.66-1.63-1.66-3.38v-13.08c0-.36-.03-.45-.12-.75.3.09.39.12.72.12h3.86c.66,0,1.06.18,1.63.84m19.44,12.75v-13.05c0-1.66.75-2.65,1.96-3.56h-8.23c1.33,1.09,1.93,1.66,1.93,3.47v13.05c0,2.14-.69,2.95-1.99,3.59h8.35c-1.39-.9-2.02-1.96-2.02-3.5m32.12-9.92l1.12-4.55c-2.99-1.93-6.03-2.65-9.19-2.65-7.5,0-12.36,4.97-12.36,10.73,0,6.87,6.33,10.55,12.39,10.4,3.38-.09,6.33-.78,9.37-2.38l-1.18-3.95h-.36c-1.66,2.14-4.94,3.62-7.84,3.62-4.61,0-7.6-3.44-7.6-7.81s3.26-7.9,7.66-7.9c3.53,0,5.91,1.51,7.99,4.49"/></g></g></svg>